<svg id="visual" viewBox="0 0 1920 1080" width="1920" height="1080" xmlns="http://www.w3.org/2000/svg" xmlns:xlink="http://www.w3.org/1999/xlink" version="1.1"><rect x="0" y="0" width="1920" height="1080" fill="#320576"></rect><defs><linearGradient id="grad1_0" x1="43.8%" y1="0%" x2="100%" y2="100%"><stop offset="14.444444444444446%" stop-color="#320576" stop-opacity="1"></stop><stop offset="85.55555555555554%" stop-color="#320576" stop-opacity="1"></stop></linearGradient></defs><defs><linearGradient id="grad2_0" x1="0%" y1="0%" x2="56.3%" y2="100%"><stop offset="14.444444444444446%" stop-color="#320576" stop-opacity="1"></stop><stop offset="85.55555555555554%" stop-color="#320576" stop-opacity="1"></stop></linearGradient></defs><g transform="translate(1920, 0)"><path d="M0 972C-69.1 773.5 -138.2 574.9 -299.5 518.7C-460.8 462.6 -714.3 548.7 -841.8 486C-969.2 423.3 -970.6 211.6 -972 0L0 0Z" fill="#333333"></path></g><g transform="translate(0, 1080)"><path d="M0 -972C40.8 -724.5 81.7 -477 246.5 -427C411.3 -376.9 700.2 -524.3 841.8 -486C983.4 -447.7 977.7 -223.9 972 0L0 0Z" fill="#333333"></path></g></svg>