<svg id="visual" viewBox="0 0 900 600" width="900" height="600" xmlns="http://www.w3.org/2000/svg" xmlns:xlink="http://www.w3.org/1999/xlink" version="1.1"><path d="M0 121L30 106C60 91 120 61 180 48C240 35 300 39 360 55C420 71 480 99 540 107C600 115 660 103 720 86C780 69 840 47 870 36L900 25L900 0L870 0C840 0 780 0 720 0C660 0 600 0 540 0C480 0 420 0 360 0C300 0 240 0 180 0C120 0 60 0 30 0L0 0Z" fill="#f7770f"></path><path d="M0 205L30 188C60 171 120 137 180 129C240 121 300 139 360 144C420 149 480 141 540 140C600 139 660 145 720 144C780 143 840 135 870 131L900 127L900 23L870 34C840 45 780 67 720 84C660 101 600 113 540 105C480 97 420 69 360 53C300 37 240 33 180 46C120 59 60 89 30 104L0 119Z" fill="#ec4347"></path><path d="M0 319L30 287C60 255 120 191 180 170C240 149 300 171 360 179C420 187 480 181 540 182C600 183 660 191 720 190C780 189 840 179 870 174L900 169L900 125L870 129C840 133 780 141 720 142C660 143 600 137 540 138C480 139 420 147 360 142C300 137 240 119 180 127C120 135 60 169 30 186L0 203Z" fill="#c62368"></path><path d="M0 433L30 399C60 365 120 297 180 273C240 249 300 269 360 266C420 263 480 237 540 232C600 227 660 243 720 248C780 253 840 247 870 244L900 241L900 167L870 172C840 177 780 187 720 188C660 189 600 181 540 180C480 179 420 185 360 177C300 169 240 147 180 168C120 189 60 253 30 285L0 317Z" fill="#c62368"></path><path d="M0 577L30 527C60 477 120 377 180 349C240 321 300 365 360 361C420 357 480 305 540 301C600 297 660 341 720 378C780 415 840 445 870 460L900 475L900 239L870 242C840 245 780 251 720 246C660 241 600 225 540 230C480 235 420 261 360 264C300 267 240 247 180 271C120 295 60 363 30 397L0 431Z" fill="#ec4347"></path><path d="M0 601L30 601C60 601 120 601 180 601C240 601 300 601 360 601C420 601 480 601 540 601C600 601 660 601 720 601C780 601 840 601 870 601L900 601L900 473L870 458C840 443 780 413 720 376C660 339 600 295 540 299C480 303 420 355 360 359C300 363 240 319 180 347C120 375 60 475 30 525L0 575Z" fill="#f7770f"></path></svg>